<svg xmlns="http://www.w3.org/2000/svg" viewBox="0 0 100 100" preserveAspectRatio="xMidYMid" width="220" height="220" style="shape-rendering: auto; display: block; background: transparent;" xmlns:xlink="http://www.w3.org/1999/xlink"><g><g transform="translate(50 50)">
  <g transform="scale(0.24)">
    <g transform="translate(-50 -50)">
      <g>
        <animateTransform dur="0.5208333333333333s" keyTimes="0;1" values="0 50 50;360 50 50" repeatCount="indefinite" type="rotate" attributeName="transform"></animateTransform>
        <path d="M50 50L50 0A50 50 0 0 1 100 50Z" fill="#202040" fill-opacity="0.8"></path>
      </g>
      <g>
        <animateTransform dur="0.6944444444444443s" keyTimes="0;1" values="0 50 50;360 50 50" repeatCount="indefinite" type="rotate" attributeName="transform"></animateTransform>
        <path transform="rotate(90 50 50)" d="M50 50L50 0A50 50 0 0 1 100 50Z" fill="#1267cc" fill-opacity="0.8"></path>
      </g>
      <g>
        <animateTransform dur="1.0416666666666665s" keyTimes="0;1" values="0 50 50;360 50 50" repeatCount="indefinite" type="rotate" attributeName="transform"></animateTransform>
        <path transform="rotate(180 50 50)" d="M50 50L50 0A50 50 0 0 1 100 50Z" fill="#299fda" fill-opacity="0.8"></path>
      </g>
      <g>
        <animateTransform dur="2.083333333333333s" keyTimes="0;1" values="0 50 50;360 50 50" repeatCount="indefinite" type="rotate" attributeName="transform"></animateTransform>
        <path transform="rotate(270 50 50)" d="M50 50L50 0A50 50 0 0 1 100 50Z" fill="#f1bc31" fill-opacity="0.8"></path>
      </g>
    </g>
  </g>
</g><g></g></g><!-- [ldio] generated by https://loading.io --></svg>